<svg width="26" height="28" xmlns="http://www.w3.org/2000/svg" xmlns:xlink="http://www.w3.org/1999/xlink">
  <defs>
    <linearGradient x1="50%" y1="0%" x2="50%" y2="100%" id="a">
      <stop stop-color="#F6B811" offset="0%"/>
      <stop stop-color="#FC8832" offset="100%"/>
    </linearGradient>
    <linearGradient x1="50%" y1="0%" x2="50%" y2="100%" id="b">
      <stop stop-opacity=".16" offset="0%"/>
      <stop stop-opacity=".16" offset="100%"/>
    </linearGradient>
    <path d="M14.79 11.25h4.28a.5.5 0 0 1 .32.89l-3.33 2.67 1.5 4.18a.5.5 0 0 1-.72.6l-3.6-2a.5.5 0 0 0-.48 0l-3.6 2a.5.5 0 0 1-.71-.6l1.5-4.18-3.34-2.67a.5.5 0 0 1 .32-.89h4.28l1.32-3.68a.5.5 0 0 1 .94 0l1.32 3.68z" id="d"/>
    <filter x="-13.3%" y="-10.1%" width="126.6%" height="128.2%" filterUnits="objectBoundingBox" id="c">
      <feOffset dy=".5" in="SourceAlpha" result="shadowOffsetOuter1"/>
      <feGaussianBlur stdDeviation=".5" in="shadowOffsetOuter1" result="shadowBlurOuter1"/>
      <feColorMatrix values="0 0 0 0 0 0 0 0 0 0 0 0 0 0 0 0 0 0 0.12 0" in="shadowBlurOuter1"/>
    </filter>
  </defs>
  <g fill="none" fill-rule="evenodd">
    <path d="M16.4 1.1l6.5 4a6.5 6.5 0 0 1 3.1 5.53v6.74a6.5 6.5 0 0 1-3.1 5.53l-6.5 4a6.5 6.5 0 0 1-6.8 0l-6.5-4A6.5 6.5 0 0 1 0 17.37v-6.74A6.5 6.5 0 0 1 3.1 5.1l6.5-4a6.5 6.5 0 0 1 6.8 0z" fill="url(#a)"/>
    <path d="M15.75 2.16a5.25 5.25 0 0 0-5.5 0l-6.5 4a5.25 5.25 0 0 0-2.5 4.47v6.74c0 1.82.95 3.51 2.5 4.47l6.5 4a5.25 5.25 0 0 0 5.5 0l6.5-4a5.25 5.25 0 0 0 2.5-4.47v-6.74c0-1.82-.95-3.51-2.5-4.47l-6.5-4zm7.16 2.94A6.5 6.5 0 0 1 26 10.63v6.74a6.5 6.5 0 0 1-3.1 5.53l-6.5 4a6.5 6.5 0 0 1-6.8 0l-6.5-4A6.5 6.5 0 0 1 0 17.37v-6.74A6.5 6.5 0 0 1 3.1 5.1l6.5-4a6.5 6.5 0 0 1 6.8 0l6.5 4z" fill="url(#b)" fill-rule="nonzero"/>
    <g>
      <use fill="#000" filter="url(#c)" xlink:href="#d"/>
      <use fill="#FFF" xlink:href="#d"/>
    </g>
  </g>
</svg>
